# xmcd
#
# Track frame offsets:
#	150
#	19343
#	34338
#	45193
#	60688
#	78176
#	90543
#	101638
#	116295
#	129183
#	138815
#	154975
#	167608
#	179827
#	194087
#	203337
#	221153
#	232299
#	242888
#	253958
#
# Disc length: 3559 seconds
#
# Revision: 1
# Processed by: cddbd v1.5.2PL0 Copyright (c) Steve Scherf et al.
# Submitted via: audiograbber 1.82.02
#
DISCID=1b0de514
DTITLE=Marty Robbins - Gold, 20 Original Hits
DYEAR=1978
DGENRE=Country
TTITLE0=El Paso
TTITLE1=Gone With The Wind
TTITLE2=Singing The Blues
TTITLE3=My Women, My Women, My Wife
TTITLE4=Big Iron
TTITLE5=It's A Sin
TTITLE6=A White Sports Coat
TTITLE7=I Walk Alone
TTITLE8=Hanging Tree
TTITLE9=Just Married
TTITLE10=Ballad Of The Alamo
TTITLE11=Devil Women
TTITLE12=Tonight Carmen
TTITLE13=Don't Worry
TTITLE14=Saddle Tramp
TTITLE15=You Gave Me A Mountain
TTITLE16=Story Of My Life
TTITLE17=She Was Only Seventeen
TTITLE18=Ribbon Of Darkness
TTITLE19=Cowboy In The Continental Suit
EXTD=
EXTT0=
EXTT1=
EXTT2=
EXTT3=
EXTT4=
EXTT5=
EXTT6=
EXTT7=
EXTT8=
EXTT9=
EXTT10=
EXTT11=
EXTT12=
EXTT13=
EXTT14=
EXTT15=
EXTT16=
EXTT17=
EXTT18=
EXTT19=
PLAYORDER=
